# xmcd
#
# Track frame offsets:
#	150
#	11490
#	24592
#	33912
#	44490
#	55085
#
# Disc length: 883 seconds
#
# Revision: 0
# Processed by: cddbd v1.5.1PL2 Copyright (c) Steve Scherf et al.
# Submitted via: EasyCDDAExtractor 4.6.0.1
#
DISCID=41037106
DTITLE=Flatt and Scruggs - On Foggy Mountain
DYEAR=1997
DGENRE=Country
TTITLE0=Petticoat Junction
TTITLE1=You are my Flower
TTITLE2=The Ballad of Jed Clampett
TTITLE3=Moggy Mountain Breakdown
TTITLE4=Foggy Mountain Top
TTITLE5=Wabash Cannon Ball
EXTD=
EXTT0=
EXTT1=
EXTT2=
EXTT3=
EXTT4=
EXTT5=
PLAYORDER=
